<?xml version="1.0" encoding="utf-8"?>
<!-- Generator: Adobe Illustrator 26.2.1, SVG Export Plug-In . SVG Version: 6.00 Build 0)  -->
<svg version="1.1" id="レイヤー_1" xmlns:svg="http://www.w3.org/2000/svg"
	 xmlns="http://www.w3.org/2000/svg" xmlns:xlink="http://www.w3.org/1999/xlink" x="0px" y="0px" viewBox="0 0 293.4 268.1"
	 style="enable-background:new 0 0 293.4 268.1;" xml:space="preserve">
<style type="text/css">
	.st0{fill:#C60E48;}
	.st1{fill:#FFFFFF;}
	.st2{fill:none;}
</style>
<g transform="rotate(0,0,0)">
	<path class="st0" d="M78.9,0C22.2,0-13.3,56.1,4.7,112.1c24.8,77,142,156,142,156s117.2-79,142-156C306.7,56.1,271.2,0,214.5,0
		c-47.1,0-67.8,51.1-67.8,51.1S126,0,78.9,0z"/>
	<path class="st1" d="M194.4,30.1c13.8-12.9,42.6-14.6,61.1,2.4c24,22.1,23.6,59.3,15.6,78.7c-4.9,11.9-13.7,9.8-12.5-1.8
		c3.5-35.6-17.4-74.2-53.9-69.2C191.2,42.1,184.8,39.1,194.4,30.1L194.4,30.1z"/>
	<path class="st2" d="M78.9,0C22.2,0-13.3,56.1,4.7,112.1c24.8,77,142,156,142,156s117.2-79,142-156C306.7,56.1,271.2,0,214.5,0
		c-47.1,0-67.8,51.1-67.8,51.1S126,0,78.9,0z"/>
</g>
</svg>
